# xmcd CD database file
#
# Track frame offsets:
#	150
#	18416
#	33227
#	47922
#	67847
#	84022
#	106390
#	124233
#	141775
#	163279
#	185779
#	206455
#	224027
#	243414
#	264698
#	288026
#	313518
#
# Disc length: 4382 seconds
#
# Revision: 0
# Processed by: cddbd v1.4PL0 Copyright (c) Steve Scherf et al.
# Submitted via: CDex 1.50beta8
#
DISCID=f8111c11
DTITLE=Various Artist - Top Hits USA RJ18
DYEAR=2002
DGENRE=Jazz
TTITLE0=Rick Derringer - Jazzy Koo (Rock and Roll Hoochie Koo)
TTITLE1=Thom Rotella - Look But Don't Touch (Radio Edit 1)
TTITLE2=Greg Adams - 'Sup With That
TTITLE3=Crait Chaquico - Afterglow
TTITLE4=Dave Koz and Jeff Koz - Blackbird
TTITLE5=Joe McBridge and The Texas Rhythm Club - Keepin' It Real
TTITLE6=Norman Brown - I Still Believe
TTITLE7=Michael Lington - Still Thinking Of You
TTITLE8=3rd Force - Young Again
TTITLE9=Nestor Torres - Watermelon Man
TTITLE10=Tom Scott - Feelin' It
TTITLE11=Jeff Jorber - Chopsticks
TTITLE12=Jonathan Butler - Pat Pat
TTITLE13=Paul Hardcastle - First Light
TTITLE14=Sato Barbier - The Shadow Of The Cat
TTITLE15=Bob Baldwin - The Way She Looked (At Me)
TTITLE16=Take 6 - Takin' It To The Streets (Radio Fade)
EXTD=YEAR: 2002
EXTT0=
EXTT1=
EXTT2=
EXTT3=
EXTT4=
EXTT5=
EXTT6=
EXTT7=
EXTT8=
EXTT9=
EXTT10=
EXTT11=
EXTT12=
EXTT13=
EXTT14=
EXTT15=
EXTT16=
PLAYORDER=
